# xmcd
#
# Track frame offsets:
#	150
#	16495
#	34459
#	49965
#	64928
#	89895
#	109593
#	127502
#	146423
#
# Disc length: 2123 seconds
# Revision: 0
# Processed by: cddbd v1.5.2PL0 Copyright (c) Steve Scherf et al.
# Submitted via: dBpowerAMP V12.0
#
DISCID=7d084909
DTITLE=Mary Jo Curry - Mary Jo Curry
DYEAR=2016
DGENRE=Blues
TTITLE0=Ooooo Weeee
TTITLE1=Husband #2
TTITLE2=Little By Little
TTITLE3=Wrapped Around My Heart
TTITLE4=Steppin'
TTITLE5=Voodoo Woman
TTITLE6=When a Woman's Had Enough
TTITLE7=Homewrecker
TTITLE8=Smellin'
EXTD=
EXTT0=
EXTT1=
EXTT2=
EXTT3=
EXTT4=
EXTT5=
EXTT6=
EXTT7=
EXTT8=
PLAYORDER=
